PathFileType	4	(X/Y/Z)	Patient4_TMGait_0pt8_01_right_12.trc.trc
DataRate	CameraRate	NumFrames	NumMarkers	Units	OrigDataRate	OrigDataStartFrame	OrigNumFrames
89.171974522293	89.171974522293	4	33	mm	89.171974522293	18	       141
Frame#	Time	Sacral			L.Shoulder			Chest			R.Shoulder			Neck			R.ASIS			L.ASIS			R.Thigh.Superior			R.Thigh.Lateral			R.Thigh.Inferior			R.Patella			L.Thigh.Superior			L.Thigh.Lateral			L.Thigh.Inferior			L.Patella			L.Shank.Superior			L.Shank.Lateral			L.Shank.Inferior			R.Shank.Superior			R.Shank.Lateral			R.Shank.Inferior			R.Heel			R.Midfoot.Superior			R.Midfoot.Lateral			R.Toe			L.Heel			L.Midfoot.Lateral			L.Midfoot.Superior			L.Toe			L.Elbow			L.Wrist			R.Elbow			R.Wrist			
		X1	Y1	Z1	X2	Y2	Z2	X3	Y3	Z3	X4	Y4	Z4	X5	Y5	Z5	X6	Y6	Z6	X7	Y7	Z7	X8	Y8	Z8	X9	Y9	Z9	X10	Y10	Z10	X11	Y11	Z11	X12	Y12	Z12	X13	Y13	Z13	X14	Y14	Z14	X15	Y15	Z15	X16	Y16	Z16	X17	Y17	Z17	X18	Y18	Z18	X19	Y19	Z19	X20	Y20	Z20	X21	Y21	Z21	X22	Y22	Z22	X23	Y23	Z23	X24	Y24	Z24	X25	Y25	Z25	X26	Y26	Z26	X27	Y27	Z27	X28	Y28	Z28	X29	Y29	Z29	X30	Y30	Z30	X31	Y31	Z31	X32	Y32	Z32	X33	Y33	Z33	

18	13.410642857143	862.202020113359	990.339496699401	441.944826202646	1038.152793407920	1432.941365234327	285.333903020282	1124.443144708116	1362.869902460755	455.116970078533	1017.364685942999	1426.135235292533	620.483086805544	1008.561305213206	1487.264317060552	440.223596048768	1081.842422664298	938.518267052547	577.213725199137	1086.948107383905	958.954521850291	301.344425220128	1166.215207633068	771.493764390323	550.207310293916	1130.226090794321	649.242932510100	629.264919024285	1220.685880886837	614.505768725446	550.439113110319	1260.020828389391	534.074366424635	571.276022681893	1086.050810164380	726.753634523906	327.833247215377	968.421079550471	634.033697666018	260.955451165380	1023.581082484937	539.109326804226	327.467444327142	1007.192293308032	473.441057390419	336.695315605485	974.302653752439	407.482890483905	327.704017265590	873.276600807329	303.901345656330	275.528359111347	906.893606737945	188.068681780345	349.235816287293	1246.880035343478	444.145709747853	583.031130313762	1198.092657942136	330.661839598104	650.598101941225	1268.732323594930	245.227833224029	600.405531522036	1182.229604894575	52.826734795496	578.231945819490	1341.265224716540	136.380446780567	616.038868375094	1267.024088179279	56.797857611934	651.490008466755	1467.090916440425	106.802238150710	642.689775853601	765.924904161433	39.686415424634	391.222765257956	838.556347214311	35.759571610924	309.757440623400	922.707414157586	95.537726467250	336.797216312220	1050.131570436995	42.576229264595	305.394527496453	1171.819786040444	1135.541050106955	125.971562463551	1411.291926926363	1031.310145211777	152.041337157993	904.734734307582	1094.991268054235	722.044562007913	885.299052033008	837.146783553501	746.814823827307	
19	13.421857142857	863.849450748449	988.058773368614	443.866280275451	1038.539341918158	1431.117714562059	287.338788797805	1125.121974635201	1361.130677217916	456.994267098726	1017.931180083888	1424.269462852101	622.348276734192	1009.029465650011	1485.228405119908	442.126117546053	1083.723322631274	936.357017697588	579.053660632548	1088.487867521895	957.153013089446	303.098765252740	1166.669374411049	767.954244303609	552.396859235366	1129.136462912252	645.544686790653	630.740737877136	1219.870137378757	611.041572312054	552.144052870180	1258.190040831910	531.551925271576	571.954192110139	1085.551554218734	724.499847508692	328.998706442038	966.714958022311	632.915995989347	262.077974753005	1020.795403512003	537.368641611357	328.621557934346	1003.733325887444	471.496272757289	337.692607817501	969.839618266435	405.929475249117	328.628631629378	867.378539344510	303.757598164217	276.301754345061	899.393531314124	187.332304392314	349.634868977258	1247.247691413537	441.688406549841	583.475311629073	1200.437875914217	326.588208439095	649.677507023043	1273.780878076578	243.172873675001	599.485115476155	1192.167762388067	48.937293096009	575.476514244755	1349.053570901124	135.485011840629	614.363146179194	1276.472400584442	54.245883743353	649.148516445416	1475.589592252026	108.587658738405	641.633323322499	756.927783181855	39.639622933223	391.226360465862	829.587348070975	35.739502442935	309.839533085554	913.839834678738	95.433826699493	336.937164375749	1041.188401901975	42.267221477644	305.332941214588	1172.914426972497	1135.349734896213	126.341468530832	1416.366468736228	1042.395085016699	154.896366505675	897.880768068389	1097.066197268048	724.463149472003	872.215181804641	839.921903682749	748.488689058868	
20	13.433071428571	865.612355976953	985.670187114275	446.115282304445	1038.831812735713	1429.147362809395	289.457581008399	1125.823054283800	1359.357827585757	458.973191461125	1018.536015960569	1422.370714553963	624.333845628950	1009.485360351090	1483.092357897397	444.138859858059	1085.858442139950	934.075441625611	581.060692062213	1090.116205615110	955.246255330328	305.051724674746	1167.739245273852	764.609939423575	554.656050970616	1128.643549606448	641.806054043274	631.879155264076	1219.802581323572	607.793980696613	553.668429330177	1256.844636852814	528.704805805781	572.313382683688	1085.442740354334	722.189054160471	330.352446848901	965.514912859102	631.612770910486	263.443047670559	1018.681455947319	535.463866406387	329.954256412455	1000.995677134997	469.252464680230	338.875918941086	965.935890180175	404.093514057011	329.724960242985	861.857290682695	303.560378342938	277.211451489060	892.051870611537	186.486006162556	350.082059459394	1247.452719135621	438.769922002407	583.582319292798	1201.637041964955	322.554471808411	648.374043571621	1276.824079835702	240.604302746351	598.182359442525	1198.256095735520	45.858889036796	572.415207109437	1353.713867850632	133.594655333752	612.310457305584	1282.007569606021	51.708637509409	646.554183608151	1480.560864197822	108.020457906244	640.312374292456	747.894131940940	39.598166533997	391.186591618034	820.619897576503	35.695282705769	309.897121620353	905.002638912137	95.320408954752	337.063035432506	1032.292508203454	41.949862529518	305.241916329797	1173.528634589607	1134.706703414805	126.943199125115	1420.229951292501	1052.909109708782	157.890455582145	891.457883425220	1099.151212118365	727.010604545850	860.513908753408	842.624911323471	749.974507631261	
21	13.444285714286	867.463535587343	983.208568772953	448.681495793074	1039.038038993829	1427.059543505305	291.694500153408	1126.548947841270	1357.575766310249	461.060935924444	1019.187439866330	1420.461635972488	626.451349625353	1009.936356420885	1480.892427013653	446.275912886817	1088.228003662332	931.716759891307	583.219158550313	1091.804183013404	953.268018073616	307.190540032510	1169.471112077368	761.528491587477	556.913448088223	1128.795973292773	638.131139428707	632.650984601914	1220.504559385976	604.821701579362	554.964546290932	1256.073933205801	525.611508724711	572.316335492313	1085.737039176623	719.849199933829	331.871334179406	964.844148588149	630.116869306639	265.061989860387	1017.327388549521	533.386662001664	331.444419280091	999.091219196807	466.683488463825	340.199567516857	962.658384555801	401.964009610139	330.971572559569	856.751964201454	303.341407727273	278.248386334925	884.890671072009	185.556721839361	350.556728841088	1247.597614921627	435.475174569328	583.357158174801	1201.915331057820	318.620225569560	646.847117939048	1278.056556363811	237.538427520202	596.594908698718	1200.641669653661	43.512355623160	569.341367126459	1355.498058536788	130.716937701381	609.992536773957	1283.875347557646	49.171979943337	643.931514796300	1482.324129613938	105.120832931105	638.726218580257	738.819450371751	39.650755621307	391.085883911461	811.651775293364	35.659776100252	309.916233816650	896.218037013875	95.204554165102	337.153637427794	1023.446740227558	41.625458356297	305.120986381044	1173.647792762913	1133.618463039377	127.785592069081	1422.903710816071	1062.757124290863	160.993627298989	885.634956062184	1101.115853828196	729.607229394226	850.151296938984	845.113939064064	751.341683763223	
